#
#
#

mtllib Josh.mtl


#
#  Mesh Mesh
#
g  Mesh Mesh

v -0.801743 2.460008 -0.124913
v 1.147262 2.458930 -0.126466
v 1.146457 1.049555 -0.157827
v -0.802548 1.050633 -0.156274
v 0.099624 -0.939959 -0.034865
v 0.100766 1.059546 0.009628
v -0.782932 1.060035 0.010332
v -0.784073 -0.939470 -0.034161
v -0.781267 -0.224705 -0.058422
v -0.780785 0.620837 -0.039607
v -2.715200 0.621907 -0.038065
v -2.715683 -0.223635 -0.056880
v 0.795339 -1.580285 0.243802
v 0.795746 -0.866139 0.259693
v -1.462331 -0.864890 0.261493
v -1.462738 -1.579036 0.245602
v -1.940465 -0.589071 0.067451
v -1.940240 -0.194893 0.076222
v -2.689967 -0.194478 0.076820
v -2.690192 -0.588656 0.068049
v 2.357036 -0.193760 -0.013569
v 2.357486 0.594611 0.003974
v 0.102731 0.595859 0.005771
v 0.102281 -0.192513 -0.011772
v 2.390315 0.565648 -0.198431
v 2.390754 1.335971 -0.181289
v 1.620241 1.336398 -0.180675
v 1.619801 0.566074 -0.197816
v 1.107424 -2.299592 0.390369
v 1.107866 -1.525301 0.407598
v -0.006750 -1.524685 0.408486
v -0.007192 -2.298975 0.391257
v -0.687963 -1.933239 0.323486
v -0.687548 -1.207208 0.339641
v -2.181400 -1.206382 0.340832
v -2.181814 -1.932412 0.324676
v -1.401059 -2.269128 0.434452
v -1.400826 -1.859930 0.443557
v -2.158197 -1.859511 0.444161
v -2.158430 -2.268709 0.435056
vn -0.000784 0.022247 -0.999752
vn 0.000784 -0.022247 0.999752
vt 0.000000 0.000000
vt 0.000000 1.000000
vt 1.000000 1.000000
vt 1.000000 0.000000
f 1/1/1 2/2/1 3/3/1 4/4/1
f 5/1/2 6/4/2 7/3/2 8/2/2
f 9/1/2 10/4/2 11/3/2 12/2/2
f 13/1/2 14/4/2 15/3/2 16/2/2
f 17/1/2 18/4/2 19/3/2 20/2/2
f 21/1/2 22/4/2 23/3/2 24/2/2
f 25/1/2 26/4/2 27/3/2 28/2/2
f 29/1/2 30/4/2 31/3/2 32/2/2
f 33/1/2 34/4/2 35/3/2 36/2/2
f 37/1/2 38/4/2 39/3/2 40/2/2
